<svg xmlns="http://www.w3.org/2000/svg" viewBox="0 0 255 153"><defs><style>.a{fill:#f09600}.b{fill:#32a5dc}</style></defs><path class="a" d="M60.93 119.72a4.25 4.25 0 004.25-4.24v-9.19h-8.5v9.19a4.24 4.24 0 004.25 4.24zM129.25 54.35v6.75A12 12 0 01139.53 73v.1h6.69V73a18.75 18.75 0 00-16.97-18.65z"/><path class="a" d="M129.25 43.8v6.7A22.59 22.59 0 01150.06 73v.1h6.66V73a29.25 29.25 0 00-27.47-29.2z"/><path class="a" d="M129.25 33.25v6.69A33.12 33.12 0 01160.59 73v.1h6.69V73a39.82 39.82 0 00-38.03-39.75z"/><path class="b" d="M125.8 61.09v-6.74a18.73 18.73 0 00-17 18.63v.1h6.68V73a12 12 0 0110.32-11.91z"/><path class="b" d="M125.8 50.5v-6.71A29.29 29.29 0 0098.26 73v.1H105V73a22.57 22.57 0 0120.8-22.5z"/><path class="b" d="M125.8 39.93v-6.68A39.81 39.81 0 0087.72 73v.1h6.69V73a33.12 33.12 0 0131.39-33.07zM36.15 119.37h-4.24V99.2c0-6.3 3.82-9.78 8.49-9.78s8.49 3.48 8.49 9.78v20.17h-4.25v-12.51h-8.49zm8.49-20.17c0-3.75-1.91-5.54-4.24-5.54s-4.25 1.79-4.25 5.54v3.4h8.49zM60.93 89.45a4.24 4.24 0 00-4.25 4.24v9.18h8.5v-9.19a4.25 4.25 0 00-4.25-4.23zM101.52 98.38a8.5 8.5 0 01-8.49 8.5h-5.16v12.51h-4.24V89.86H93a8.49 8.49 0 018.49 8.49zm-4.24 0A4.24 4.24 0 0093 94.14h-5.13v8.49H93a4.25 4.25 0 004.28-4.25zM119.21 102.28V89.86h4.25v29.51h-4.25v-12.84h-8.49v12.84h-4.25V89.86h4.25v12.42zM173.32 119.37h-5.19L162 106.86h-3.18v12.51h-4.22V89.86h8.06a8.49 8.49 0 018.49 8.49 8.37 8.37 0 01-4.63 7.52l-.46.24zm-6.37-21a4.24 4.24 0 00-4.25-4.24h-3.85v8.49h3.82a4.25 4.25 0 004.27-4.22zM195.43 119.37V100l-6.15 11.53h-.84L182.3 100v19.38h-4.06V89.86h3.48l7.15 13.41L196 89.86h3.48v29.51zM210.33 119.37h-4.24V99.2c0-6.3 3.82-9.78 8.49-9.78s8.49 3.48 8.49 9.78v20.17h-4.24v-12.51h-8.5zm8.5-20.17c0-3.75-1.91-5.54-4.25-5.54s-4.25 1.79-4.25 5.54v3.4h8.5zM134.8 119.37h-4.24V99.2c0-6.3 3.82-9.78 8.49-9.78s8.49 3.48 8.49 9.78v20.17h-4.24v-12.51h-8.5zm8.5-20.17c0-3.75-1.91-5.54-4.25-5.54s-4.25 1.79-4.25 5.54v3.4h8.5zM71.96 102.62h4.87v4.24h-4.87z"/></svg>
